<svg width="32" height="32" viewBox="0 0 32 32" fill="none"
    xmlns="http://www.w3.org/2000/svg">
    <path d="M23.4667 23.9999H23.25C22.9944 22.8332 22.5444 21.7603 21.9 20.7811C21.2556 19.802 20.4722 18.9582 19.55 18.2499C18.6278 17.5415 17.5889 16.9895 16.4333 16.5936C15.2778 16.1978 14.0667 15.9999 12.8 15.9999C11.8222 15.9999 10.8778 16.1197 9.96667 16.3593C9.05556 16.5988 8.20556 16.9322 7.41667 17.3593C6.62778 17.7863 5.91111 18.3072 5.26667 18.9218C4.62222 19.5363 4.06667 20.2134 3.6 20.953C3.13333 21.6926 2.77222 22.4895 2.51667 23.3436C2.26111 24.1978 2.13333 25.0832 2.13333 25.9999H0C0 24.7499 0.194444 23.5468 0.583333 22.3905C0.972222 21.2343 1.53333 20.1665 2.26667 19.1874C3 18.2082 3.86667 17.3384 4.86667 16.578C5.86667 15.8176 7 15.2186 8.26667 14.7811C7.01111 14.0103 6.03333 13.0415 5.33333 11.8749C4.63333 10.7082 4.27778 9.41654 4.26667 7.99988C4.26667 6.89571 4.48889 5.85925 4.93333 4.8905C5.37778 3.92175 5.98333 3.07279 6.75 2.34363C7.51667 1.61446 8.42222 1.04154 9.46667 0.624878C10.5111 0.208211 11.6222 -0.00012207 12.8 -0.00012207C13.9778 -0.00012207 15.0833 0.208211 16.1167 0.624878C17.15 1.04154 18.0556 1.60925 18.8333 2.328C19.6111 3.04675 20.2222 3.89571 20.6667 4.87488C21.1111 5.85404 21.3333 6.89571 21.3333 7.99988C21.3333 8.68738 21.2444 9.35925 21.0667 10.0155C20.8889 10.6718 20.6222 11.2915 20.2667 11.8749C19.9111 12.4582 19.4944 12.9947 19.0167 13.4843C18.5389 13.9738 17.9778 14.4061 17.3333 14.7811C18.5778 15.229 19.7222 15.8436 20.7667 16.6249C21.8111 17.4061 22.7111 18.3228 23.4667 19.3749V23.9999ZM6.4 7.99988C6.4 8.83321 6.56667 9.60925 6.9 10.328C7.23333 11.0468 7.68889 11.6822 8.26667 12.2343C8.84445 12.7863 9.52222 13.2186 10.3 13.5311C11.0778 13.8436 11.9111 13.9999 12.8 13.9999C13.6778 13.9999 14.5056 13.8436 15.2833 13.5311C16.0611 13.2186 16.7389 12.7915 17.3167 12.2499C17.8944 11.7082 18.3556 11.0728 18.7 10.3436C19.0444 9.61446 19.2111 8.83321 19.2 7.99988C19.2 7.17696 19.0333 6.40092 18.7 5.67175C18.3667 4.94259 17.9111 4.30717 17.3333 3.7655C16.7556 3.22384 16.0722 2.79154 15.2833 2.46863C14.4944 2.14571 13.6667 1.98946 12.8 1.99988C11.9111 1.99988 11.0833 2.15613 10.3167 2.46863C9.55 2.78113 8.87222 3.20821 8.28333 3.74988C7.69444 4.29154 7.23333 4.93217 6.9 5.67175C6.56667 6.41134 6.4 7.18738 6.4 7.99988ZM27.7333 25.9999H32V27.9999H27.7333V31.9999H25.6V27.9999H21.3333V25.9999H25.6V21.9999H27.7333V25.9999Z" fill="black"/>
</svg>
