<svg width="30" height="30" viewBox="0 0 30 30" fill="none"
    xmlns="http://www.w3.org/2000/svg">
    <path fill-rule="evenodd" clip-rule="evenodd" d="M16.5 22.4999H19.125C24.3027 22.4999 28.5 17.8362 28.5 12.0832C28.5 6.33021 24.3027 1.66654 19.125 1.66654H10.875C5.6973 1.66654 1.5 6.33021 1.5 12.0832C1.5 18.6786 5.41253 22.7113 9.69293 25.1884C11.8189 26.4186 13.9602 27.2137 15.5796 27.701C15.9112 27.8008 16.2195 27.8873 16.5 27.9617V22.4999ZM18 29.9999C18 29.9999 17.4329 29.908 16.5 29.673C12.1771 28.5838 0 24.4207 0 12.0832C0 5.40979 4.86893 -0.00012207 10.875 -0.00012207H19.125C25.1311 -0.00012207 30 5.40979 30 12.0832C30 18.7566 25.1311 24.1665 19.125 24.1665H18V29.9999Z" fill="black"/>
    <path fill-rule="evenodd" clip-rule="evenodd" d="M15 13.3336C15.4142 13.3336 15.75 12.9606 15.75 12.5003C15.75 12.0401 15.4142 11.667 15 11.667C14.5858 11.667 14.25 12.0401 14.25 12.5003C14.25 12.9606 14.5858 13.3336 15 13.3336ZM15 15.0003C16.2427 15.0003 17.25 13.8811 17.25 12.5003C17.25 11.1196 16.2427 10.0003 15 10.0003C13.7573 10.0003 12.75 11.1196 12.75 12.5003C12.75 13.8811 13.7573 15.0003 15 15.0003Z" fill="black"/>
    <path fill-rule="evenodd" clip-rule="evenodd" d="M21 13.3336C21.4142 13.3336 21.75 12.9606 21.75 12.5003C21.75 12.0401 21.4142 11.667 21 11.667C20.5858 11.667 20.25 12.0401 20.25 12.5003C20.25 12.9606 20.5858 13.3336 21 13.3336ZM21 15.0003C22.2427 15.0003 23.25 13.8811 23.25 12.5003C23.25 11.1196 22.2427 10.0003 21 10.0003C19.7573 10.0003 18.75 11.1196 18.75 12.5003C18.75 13.8811 19.7573 15.0003 21 15.0003Z" fill="black"/>
    <path fill-rule="evenodd" clip-rule="evenodd" d="M9 13.3336C9.41422 13.3336 9.75 12.9606 9.75 12.5003C9.75 12.0401 9.41422 11.667 9 11.667C8.58577 11.667 8.25 12.0401 8.25 12.5003C8.25 12.9606 8.58577 13.3336 9 13.3336ZM9 15.0003C10.2427 15.0003 11.25 13.8811 11.25 12.5003C11.25 11.1196 10.2427 10.0003 9 10.0003C7.75732 10.0003 6.75 11.1196 6.75 12.5003C6.75 13.8811 7.75732 15.0003 9 15.0003Z" fill="black"/>
</svg>
