<svg width="314" height="97" viewBox="0 0 314 97" fill="none" xmlns="http://www.w3.org/2000/svg">
<g clip-path="url(#clip0_31_266)">
<path d="M0 45.6839C0 20.443 20.4465 0 45.6917 0H268.308C293.553 0 314 20.443 314 45.6839V51.3161C314 76.557 293.553 97 268.308 97H45.6917C20.4465 97 0 76.557 0 51.3161V45.6839Z" fill="url(#paint0_radial_31_266)"/>
<g style="mix-blend-mode:color-dodge">
<path d="M0 45.6839C0 20.443 20.4465 0 45.6917 0H268.308C293.553 0 314 20.443 314 45.6839V51.3161C314 76.557 293.553 97 268.308 97H45.6917C20.4465 97 0 76.557 0 51.3161V45.6839Z" fill="url(#paint1_radial_31_266)"/>
</g>
<g style="mix-blend-mode:soft-light">
<path d="M0 45.8923C0 23.3632 18.3601 5.21484 40.893 5.21484H273.316C295.849 5.21484 314.209 23.5718 314.209 46.1009V51.1073C314.209 73.6363 295.849 91.9933 273.316 91.9933H40.893C18.3601 91.7847 0 73.6363 0 51.1073V45.8923Z" fill="url(#paint2_radial_31_266)"/>
</g>
<g style="mix-blend-mode:overlay" opacity="0.38">
<path d="M314 43.8066C314 44.4324 314 45.2669 314 46.1013V51.1077C314 73.6367 295.64 91.9937 273.107 91.9937H40.893C18.3601 91.7851 0 73.6367 0 51.1077V45.8927C0 45.0583 0 44.4324 0 43.598C0 43.598 5.21596 -18.9826 136.241 25.4496C280.201 74.4712 314 43.8066 314 43.8066Z" fill="white"/>
</g>
<g filter="url(#filter0_d_31_266)">
<path d="M113.065 59.8711V36.0001H118.194L127.742 50.2259V36.0001H133.258V59.8711H128.097L118.613 46.1937V59.8711H113.065ZM148.061 60.1937C146.018 60.1937 144.234 59.8496 142.707 59.1614C141.18 58.4517 139.9 57.5163 138.868 56.355C137.857 55.1722 137.094 53.8496 136.578 52.3872C136.061 50.9249 135.803 49.4302 135.803 47.9034C135.803 46.3765 136.061 44.8926 136.578 43.4517C137.094 41.9894 137.857 40.6775 138.868 39.5163C139.9 38.355 141.18 37.4302 142.707 36.7421C144.234 36.0324 146.018 35.6775 148.061 35.6775C150.083 35.6775 151.857 36.0324 153.384 36.7421C154.911 37.4302 156.18 38.355 157.191 39.5163C158.223 40.6775 158.997 41.9894 159.513 43.4517C160.029 44.8926 160.287 46.3765 160.287 47.9034C160.287 49.4302 160.029 50.9249 159.513 52.3872C158.997 53.8496 158.223 55.1722 157.191 56.355C156.18 57.5163 154.911 58.4517 153.384 59.1614C151.857 59.8496 150.083 60.1937 148.061 60.1937ZM148.061 55.1937C149.459 55.1937 150.631 54.8388 151.578 54.1292C152.545 53.4195 153.266 52.5163 153.739 51.4195C154.234 50.3012 154.481 49.1292 154.481 47.9034C154.481 46.6991 154.234 45.5485 153.739 44.4517C153.266 43.3335 152.545 42.4195 151.578 41.7098C150.631 41.0001 149.459 40.6453 148.061 40.6453C146.642 40.6453 145.449 41.0001 144.481 41.7098C143.535 42.4195 142.825 43.3335 142.352 44.4517C141.879 45.5485 141.642 46.6991 141.642 47.9034C141.642 49.1292 141.879 50.3012 142.352 51.4195C142.825 52.5163 143.535 53.4195 144.481 54.1292C145.449 54.8388 146.642 55.1937 148.061 55.1937ZM167.997 59.8711V40.8388H160.739V36.0001H180.868V40.8388H173.61V59.8711H167.997ZM183.489 59.8711V36.0001H200.36V40.8388H189.07V45.4517H198.909V50.0646H189.07V55.0324H200.521V59.8711H183.489Z" fill="white"/>
</g>
<g opacity="0.67">
<path d="M273.107 91.7849C265.805 91.9935 232.84 91.9935 225.538 91.9935L203.839 92.2021C189.235 92.2021 174.839 92.2021 160.234 92.4107L116.837 92.2021L95.1389 91.9935C87.8365 91.9935 48.1953 91.7849 40.893 91.7849C47.9867 91.7849 87.6279 91.7849 94.9302 91.5763H116.837L160.443 91.3677C175.047 91.3677 189.443 91.3677 204.048 91.5763L225.746 91.7849C232.84 91.7849 266.013 91.7849 273.107 91.7849Z" fill="white"/>
</g>
</g>
<defs>
<filter id="filter0_d_31_266" x="113.065" y="35.6777" width="87.4569" height="26.5161" filterUnits="userSpaceOnUse" color-interpolation-filters="sRGB">
<feFlood flood-opacity="0" result="BackgroundImageFix"/>
<feColorMatrix in="SourceAlpha" type="matrix" values="0 0 0 0 0 0 0 0 0 0 0 0 0 0 0 0 0 0 127 0" result="hardAlpha"/>
<feOffset dy="2"/>
<feComposite in2="hardAlpha" operator="out"/>
<feColorMatrix type="matrix" values="0 0 0 0 0.6125 0 0 0 0 0 0 0 0 0 0 0 0 0 1 0"/>
<feBlend mode="normal" in2="BackgroundImageFix" result="effect1_dropShadow_31_266"/>
<feBlend mode="normal" in="SourceGraphic" in2="effect1_dropShadow_31_266" result="shape"/>
</filter>
<radialGradient id="paint0_radial_31_266" cx="0" cy="0" r="1" gradientUnits="userSpaceOnUse" gradientTransform="translate(86.0928 270.844) rotate(180) scale(426.132 426.059)">
<stop stop-color="#FF6B00"/>
<stop offset="1" stop-color="#6E0000"/>
</radialGradient>
<radialGradient id="paint1_radial_31_266" cx="0" cy="0" r="1" gradientUnits="userSpaceOnUse" gradientTransform="translate(86.0928 270.844) rotate(180) scale(426.132 426.059)">
<stop stop-color="white"/>
<stop offset="1"/>
</radialGradient>
<radialGradient id="paint2_radial_31_266" cx="0" cy="0" r="1" gradientUnits="userSpaceOnUse" gradientTransform="translate(132.612 104.6) rotate(180) scale(277.22 277.172)">
<stop stop-color="white"/>
<stop offset="1"/>
</radialGradient>
<clipPath id="clip0_31_266">
<rect width="314" height="97" fill="white"/>
</clipPath>
</defs>
</svg>
