<svg width="18" height="18" viewBox="0 0 18 18" fill="none"
    xmlns="http://www.w3.org/2000/svg">
    <path d="M8.99994 0.875C7.39297 0.875 5.82208 1.35152 4.48593 2.24431C3.14979 3.1371 2.10838 4.40605 1.49342 5.8907C0.878459 7.37535 0.717557 9.00901 1.03106 10.5851C1.34457 12.1612 2.1184 13.6089 3.2547 14.7452C4.391 15.8815 5.83874 16.6554 7.41483 16.9689C8.99093 17.2824 10.6246 17.1215 12.1092 16.5065C13.5939 15.8916 14.8628 14.8502 15.7556 13.514C16.6484 12.1779 17.1249 10.607 17.1249 9C17.1225 6.84588 16.2656 4.78069 14.7424 3.2575C13.2192 1.7343 11.1541 0.877481 8.99994 0.875ZM11.9418 11.0581C12.0015 11.1158 12.0491 11.1847 12.0819 11.261C12.1146 11.3372 12.1319 11.4193 12.1326 11.5022C12.1333 11.5852 12.1175 11.6675 12.0861 11.7443C12.0547 11.8212 12.0082 11.8909 11.9496 11.9496C11.8909 12.0083 11.8211 12.0547 11.7443 12.0861C11.6675 12.1176 11.5852 12.1334 11.5022 12.1327C11.4192 12.1319 11.3372 12.1147 11.2609 12.0819C11.1847 12.0492 11.1157 12.0016 11.0581 11.9419L8.99994 9.88375L6.94182 11.9419C6.82394 12.0557 6.66607 12.1187 6.50219 12.1173C6.33832 12.1159 6.18156 12.0501 6.06568 11.9343C5.9498 11.8184 5.88407 11.6616 5.88265 11.4978C5.88122 11.3339 5.94422 11.176 6.05807 11.0581L8.11619 9L6.05807 6.94187C5.94422 6.824 5.88122 6.66612 5.88265 6.50225C5.88407 6.33838 5.9498 6.18162 6.06568 6.06574C6.18156 5.94986 6.33832 5.88413 6.50219 5.8827C6.66607 5.88128 6.82394 5.94428 6.94182 6.05813L8.99994 8.11625L11.0581 6.05813C11.1759 5.94428 11.3338 5.88128 11.4977 5.8827C11.6616 5.88413 11.8183 5.94986 11.9342 6.06574C12.0501 6.18162 12.1158 6.33838 12.1172 6.50225C12.1187 6.66612 12.0557 6.824 11.9418 6.94187L9.88369 9L11.9418 11.0581Z" fill="#30A849"/>
</svg>
