<svg width="314" height="97" viewBox="0 0 314 97" fill="none" xmlns="http://www.w3.org/2000/svg">
<g clip-path="url(#clip0_31_256)">
<path d="M0 45.6839C0 20.443 20.4465 0 45.6917 0H268.308C293.553 0 314 20.443 314 45.6839V51.3161C314 76.557 293.553 97 268.308 97H45.6917C20.4465 97 0 76.557 0 51.3161V45.6839Z" fill="url(#paint0_radial_31_256)"/>
<g style="mix-blend-mode:color-dodge">
<path d="M0 45.6839C0 20.443 20.4465 0 45.6917 0H268.308C293.553 0 314 20.443 314 45.6839V51.3161C314 76.557 293.553 97 268.308 97H45.6917C20.4465 97 0 76.557 0 51.3161V45.6839Z" fill="url(#paint1_radial_31_256)"/>
</g>
<g style="mix-blend-mode:soft-light">
<path d="M0 45.8923C0 23.3632 18.3601 5.21484 40.893 5.21484H273.316C295.849 5.21484 314.209 23.5718 314.209 46.1009V51.1073C314.209 73.6363 295.849 91.9933 273.316 91.9933H40.893C18.3601 91.7847 0 73.6363 0 51.1073V45.8923Z" fill="url(#paint2_radial_31_256)"/>
</g>
<g style="mix-blend-mode:overlay" opacity="0.38">
<path d="M314 43.8066C314 44.4324 314 45.2669 314 46.1013V51.1077C314 73.6367 295.64 91.9937 273.107 91.9937H40.893C18.3601 91.7851 0 73.6367 0 51.1077V45.8927C0 45.0583 0 44.4324 0 43.598C0 43.598 5.21595 -18.9826 136.241 25.4496C280.201 74.4712 314 43.8066 314 43.8066Z" fill="white"/>
</g>
<g opacity="0.67">
<path d="M273.107 91.7849C265.805 91.9935 232.84 91.9935 225.538 91.9935L203.839 92.2021C189.235 92.2021 174.839 92.2021 160.234 92.4107L116.837 92.2021L95.1389 91.9935C87.8365 91.9935 48.1953 91.7849 40.893 91.7849C47.9867 91.7849 87.6279 91.7849 94.9302 91.5763H116.837L160.443 91.3677C175.047 91.3677 189.443 91.3677 204.048 91.5763L225.746 91.7849C232.84 91.7849 266.013 91.7849 273.107 91.7849Z" fill="white"/>
</g>
<g filter="url(#filter0_d_31_256)">
<path d="M59.0645 59.8711V36.0001H68.5161C70.4731 36.0001 72.1935 36.3442 73.6774 37.0324C75.1613 37.699 76.3871 38.6023 77.3548 39.7421C78.3441 40.8818 79.086 42.1614 79.5806 43.5808C80.0753 45.0001 80.3226 46.4517 80.3226 47.9356C80.3226 49.4195 80.0753 50.8711 79.5806 52.2904C79.086 53.7098 78.3441 54.9894 77.3548 56.1292C76.3871 57.2689 75.1613 58.1829 73.6774 58.8711C72.1935 59.5378 70.4731 59.8711 68.5161 59.8711H59.0645ZM68.2581 40.9034H64.6452V54.9034H68.2581C69.7419 54.9034 70.957 54.5593 71.9032 53.8711C72.871 53.1829 73.5806 52.312 74.0323 51.2582C74.4839 50.1829 74.7097 49.0539 74.7097 47.8711C74.7097 46.7313 74.4839 45.6238 74.0323 44.5485C73.5806 43.4732 72.871 42.6023 71.9032 41.9356C70.957 41.2474 69.7419 40.9034 68.2581 40.9034ZM82.9294 59.8711V36.0001H88.5101V59.8711H82.9294ZM85.7036 68.0324C84.9079 68.0324 84.252 67.7636 83.7359 67.2259C83.2413 66.7098 82.994 66.0754 82.994 65.3227C82.994 64.57 83.2413 63.9249 83.7359 63.3872C84.252 62.8711 84.9079 62.613 85.7036 62.613C86.4993 62.613 87.1552 62.8711 87.6714 63.3872C88.1875 63.9249 88.4456 64.57 88.4456 65.3227C88.4456 66.0754 88.1875 66.7098 87.6714 67.2259C87.1552 67.7636 86.4993 68.0324 85.7036 68.0324ZM103.113 60.1937C101.134 60.1937 99.3925 59.8496 97.8871 59.1614C96.3817 58.4517 95.1237 57.5163 94.1129 56.355C93.1237 55.1722 92.371 53.8496 91.8548 52.3872C91.3602 50.9249 91.1129 49.4302 91.1129 47.9034C91.1129 46.398 91.3602 44.9141 91.8548 43.4517C92.371 41.9894 93.1237 40.6775 94.1129 39.5163C95.1237 38.355 96.3817 37.4302 97.8871 36.7421C99.3925 36.0324 101.134 35.6775 103.113 35.6775C104.812 35.6775 106.253 35.8926 107.435 36.3227C108.64 36.7313 109.64 37.2797 110.435 37.9679C111.253 38.6345 111.898 39.3442 112.371 40.0969C112.866 40.8281 113.231 41.527 113.468 42.1937C113.704 42.8603 113.855 43.4087 113.919 43.8388C114.005 44.2689 114.048 44.484 114.048 44.484H108.532C108.532 44.484 108.468 44.2904 108.339 43.9034C108.231 43.5163 107.995 43.0754 107.629 42.5808C107.285 42.0646 106.758 41.613 106.048 41.2259C105.339 40.8388 104.382 40.6453 103.177 40.6453C101.78 40.6453 100.608 41.0001 99.6613 41.7098C98.7366 42.4195 98.0376 43.3335 97.5645 44.4517C97.1129 45.5485 96.8871 46.6991 96.8871 47.9034C96.8871 49.1077 97.1129 50.2689 97.5645 51.3872C98.0376 52.5055 98.7366 53.4195 99.6613 54.1292C100.608 54.8388 101.78 55.1937 103.177 55.1937C104.382 55.1937 105.339 55.0001 106.048 54.613C106.758 54.2259 107.285 53.7851 107.629 53.2904C107.995 52.7958 108.231 52.355 108.339 51.9679C108.468 51.5808 108.532 51.3872 108.532 51.3872H114.048C114.048 51.3872 114.005 51.6023 113.919 52.0324C113.855 52.441 113.704 52.9894 113.468 53.6775C113.231 54.3442 112.866 55.0539 112.371 55.8066C111.898 56.5378 111.253 57.2474 110.435 57.9356C109.64 58.6023 108.64 59.1507 107.435 59.5808C106.253 59.9894 104.812 60.1937 103.113 60.1937ZM116.605 59.8711V36.0001H122.185V45.2582H130.766V36.0001H136.347V59.8711H130.766V50.0324H122.185V59.8711H116.605ZM153.015 59.8711V40.8388H145.757V36.0001H165.886V40.8388H158.628V59.8711H153.015ZM168.506 59.8711V36.0001H174.087V45.2582H182.668V36.0001H188.248V59.8711H182.668V50.0324H174.087V59.8711H168.506ZM201.643 60.1937C200.374 60.1937 199.148 60.0216 197.965 59.6775C196.783 59.312 195.718 58.7421 194.772 57.9679C193.847 57.1937 193.105 56.1829 192.546 54.9356C192.008 53.6883 191.74 52.1829 191.74 50.4195V36.0001H197.32V50.4195C197.32 51.6883 197.664 52.7636 198.353 53.6453C199.062 54.5055 200.159 54.9356 201.643 54.9356C203.127 54.9356 204.213 54.5055 204.901 53.6453C205.611 52.7636 205.965 51.6883 205.965 50.4195V36.0001H211.546V50.4195C211.546 52.1829 211.267 53.6883 210.707 54.9356C210.17 56.1829 209.428 57.1937 208.482 57.9679C207.557 58.7421 206.503 59.312 205.32 59.6775C204.138 60.0216 202.912 60.1937 201.643 60.1937ZM218.283 34.0001L222.541 28.9356H226.864L231.122 34.0001H226.928L224.702 31.2904L222.477 34.0001H218.283ZM212.896 59.8711L220.928 36.0001H228.412L236.444 59.8711H230.606L229.218 55.5163H220.122L218.735 59.8711H212.896ZM221.638 50.7421H227.702L224.67 41.355L221.638 50.7421ZM224.67 68.0324C223.874 68.0324 223.218 67.7636 222.702 67.2259C222.208 66.7098 221.96 66.0754 221.96 65.3227C221.96 64.57 222.208 63.9249 222.702 63.3872C223.218 62.8711 223.874 62.613 224.67 62.613C225.444 62.613 226.089 62.8711 226.606 63.3872C227.122 63.9249 227.38 64.57 227.38 65.3227C227.38 66.0754 227.122 66.7098 226.606 67.2259C226.089 67.7636 225.444 68.0324 224.67 68.0324ZM241.632 59.8711V40.8388H234.374V36.0001H254.503V40.8388H247.245V59.8711H241.632Z" fill="white"/>
</g>
</g>
<defs>
<filter id="filter0_d_31_256" x="59.0645" y="28.9355" width="195.439" height="41.0967" filterUnits="userSpaceOnUse" color-interpolation-filters="sRGB">
<feFlood flood-opacity="0" result="BackgroundImageFix"/>
<feColorMatrix in="SourceAlpha" type="matrix" values="0 0 0 0 0 0 0 0 0 0 0 0 0 0 0 0 0 0 127 0" result="hardAlpha"/>
<feOffset dy="2"/>
<feComposite in2="hardAlpha" operator="out"/>
<feColorMatrix type="matrix" values="0 0 0 0 0.6125 0 0 0 0 0 0 0 0 0 0 0 0 0 1 0"/>
<feBlend mode="normal" in2="BackgroundImageFix" result="effect1_dropShadow_31_256"/>
<feBlend mode="normal" in="SourceGraphic" in2="effect1_dropShadow_31_256" result="shape"/>
</filter>
<radialGradient id="paint0_radial_31_256" cx="0" cy="0" r="1" gradientUnits="userSpaceOnUse" gradientTransform="translate(86.0928 270.844) rotate(180) scale(426.132 426.059)">
<stop stop-color="#FF6B00"/>
<stop offset="1" stop-color="#6E0000"/>
</radialGradient>
<radialGradient id="paint1_radial_31_256" cx="0" cy="0" r="1" gradientUnits="userSpaceOnUse" gradientTransform="translate(86.0928 270.844) rotate(180) scale(426.132 426.059)">
<stop stop-color="white"/>
<stop offset="1"/>
</radialGradient>
<radialGradient id="paint2_radial_31_256" cx="0" cy="0" r="1" gradientUnits="userSpaceOnUse" gradientTransform="translate(132.612 104.6) rotate(180) scale(277.22 277.172)">
<stop stop-color="white"/>
<stop offset="1"/>
</radialGradient>
<clipPath id="clip0_31_256">
<rect width="314" height="97" fill="white"/>
</clipPath>
</defs>
</svg>
